<svg xmlns="http://www.w3.org/2000/svg" viewBox="0 0 64 64" role="img" aria-label="Cloudflare">
  <rect width="64" height="64" rx="14" fill="#F38020"/>
  <path fill="#fff" d="M44.6 38.2c.4-1.3.6-2.6.6-3.9 0-6.2-5-11.2-11.2-11.2-3.7 0-7 1.8-9 4.6-1.4-.9-3.1-1.4-4.9-1.4-4.8 0-8.7 3.7-9.1 8.4C7.2 35.5 4 39.2 4 43.7c0 5 4 9 9 9h33.2c5.4 0 9.8-4.4 9.8-9.8 0-3.8-2.2-7.1-5.4-8.7z"/>
  <path fill="#FAAD3F" d="M20.2 45.2l16.8-10.5c.7-.4 1.5.3 1.2 1L32.8 47c-.2.5.2 1 .7 1h8.2c.6 0 .9.7.4 1.1l-5.9 4.1c-.3.2-.7.2-1 0L20.5 46.5c-.6-.4-.4-1.3.3-1.3h-.6z"/>
</svg>
