<svg viewBox="0 0 80 80" xmlns="http://www.w3.org/2000/svg"><rect width="80" height="80" fill="#AFFF9F"/><g transform="translate(15 14.5)" fill="#1b1b1b"><path d="m34.8878495 51h14.5595084c.4123286 0 .6764337-.4388425.4833714-.80318l-7.3695153-13.9073834c-.0943628-.1780768-.2794005-.2894366-.4809339-.2894366h-14.5309922c-.4218127 0-.6919948.4489337-.4944966.821654l7.362946 13.895418c.0922378.174072.2731125.282928.4701122.282928z"/><path d="m.065901 18.8216682 7.3594864 13.8888889c.0943618.1780804.2794014.2894429.4809375.2894429h14.5312047c.4218231 0 .6920096-.4489475.4945018-.8216745l-7.3631698-13.8954085c-.0922373-.1740656-.273107-.282917-.4701007-.282917h-14.5383548c-.42182 0-.6920067.4489414-.4945052.8216682z"/><path d="m42.5662922 32.7105621 7.369289-13.9073885c.1930561-.3643372-.0710491-.8031735-.4833745-.8031735h-14.5519125c-.2015299 0-.3865644.1113578-.4809256.2894316l-7.3695253 13.9074022c-.1930589.3643313.0710416.8031662.4833631.8031662h14.5521566c.2015325 0 .386569-.1113606.4809292-.2894379z"/><path d="m49.8995141 14.1794622-7.2575076-13.8888939c-.0933286-.1786056-.2781605-.2905683-.4796802-.2905683h-32.6606889c-.4055457 0-.6636043.4503564-.4701743.8205346l7.2573921 13.8888889c.0933297.1786105.2781658.2905765.4796903.2905765h32.6607959c.4055473 0 .6636057-.4503595.4701726-.8205378z"/></g></svg>